<?xml version="1.0" encoding="UTF-8" standalone="no"?>
<!-- Generator: Adobe Illustrator 15.0.0, SVG Export Plug-In . SVG Version: 6.00 Build 0)  -->

<svg
   xmlns:dc="http://purl.org/dc/elements/1.1/"
   xmlns:cc="http://creativecommons.org/ns#"
   xmlns:rdf="http://www.w3.org/1999/02/22-rdf-syntax-ns#"
   xmlns:svg="http://www.w3.org/2000/svg"
   xmlns="http://www.w3.org/2000/svg"
   xmlns:sodipodi="http://sodipodi.sourceforge.net/DTD/sodipodi-0.dtd"
   xmlns:inkscape="http://www.inkscape.org/namespaces/inkscape"
   version="1.1"
   x="0px"
   y="0px"
   width="430"
   height="95"
   viewBox="0 0 430 94.999999"
   enable-background="new 0 0 487.7554 486.7344"
   xml:space="preserve"
   id="svg2"
   inkscape:version="0.91 r13725"
   sodipodi:docname="AYSOKansas.svg"><metadata
     id="metadata3436"><rdf:RDF><cc:Work
         rdf:about=""><dc:format>image/svg+xml</dc:format><dc:type
           rdf:resource="http://purl.org/dc/dcmitype/StillImage" /><dc:title></dc:title></cc:Work></rdf:RDF></metadata><defs
     id="defs3434" /><sodipodi:namedview
     pagecolor="#ffffff"
     bordercolor="#666666"
     borderopacity="1"
     objecttolerance="10"
     gridtolerance="10"
     guidetolerance="10"
     inkscape:pageopacity="0"
     inkscape:pageshadow="2"
     inkscape:window-width="2048"
     inkscape:window-height="1099"
     id="namedview3432"
     showgrid="false"
     fit-margin-top="10"
     fit-margin-left="10"
     fit-margin-bottom="10"
     fit-margin-right="10"
     inkscape:zoom="1.3714025"
     inkscape:cx="149.9835"
     inkscape:cy="-21.536438"
     inkscape:window-x="1672"
     inkscape:window-y="-8"
     inkscape:window-maximized="1"
     inkscape:current-layer="svg2" /><g
     id="Square"
     transform="translate(-32.77608,5.1353222)" /><g
     id="g3398"
     transform="translate(-551.9526,-274.86999)"><g
       id="g3400"><g
         id="XMLID_9_"><g
           id="g3403"><path
             style="fill:#0066a5"
             inkscape:connector-curvature="0"
             id="path3405"
             d="m 693.3579,309.4561 c 4.043,0 8.9199,0 13.5068,0 4.5059,0 9.2705,-0.7217 11.6797,1.8301 1.3203,3.9795 -1.4082,7.0889 -1.834,10.7588 -1.126,2.4434 -1.6904,5.1797 -2.5166,7.7832 -0.1289,0.4014 -0.3799,0.5195 -0.46,0.917 -0.4316,2.0811 -1.4082,4.5205 -2.0635,6.6396 -1.5713,5.1338 -2.9521,10.3691 -5.0322,15.1094 -0.6309,-0.1533 -0.583,0.46 -0.9141,0.6865 -0.9063,0.6104 -1.9824,0.4111 -2.75,1.1436 -4.8135,-0.3447 -12.9512,0.4424 -18.7686,0 -0.7109,-0.0527 -1.6143,-0.3662 -2.5205,-0.457 -2.8574,-0.2959 -5.6494,0.335 -6.6426,-1.373 -0.2754,-0.4844 0.1631,-0.9756 -0.4531,-0.917 -0.2656,-1.4395 0.502,-2.6865 0.916,-3.8926 0.1436,-0.4326 0.0879,-0.9619 0.2266,-1.374 0.0801,-0.2334 0.4014,-0.3135 0.46,-0.4561 0.1855,-0.4707 0.2656,-1.2686 0.4531,-1.833 0.5479,-1.6143 1.0352,-3.1514 1.6074,-4.8066 0.1631,-0.4814 0.4219,-1.2549 0.6826,-1.8301 0.1924,-0.418 0.209,-1.0352 0.46,-1.833 0.3145,-0.9971 0.9482,-2.3076 1.1475,-3.6631 0.8262,-1.4717 1.0908,-3.2031 1.5957,-4.8066 0.1357,-0.4082 0.2266,-0.4434 0.46,-1.1436 0.1367,-0.4004 0.0801,-0.4492 0.2266,-0.6865 0.3486,-0.5645 0.6064,-2.0078 0.9209,-2.9766 0.5186,-1.6172 1.0527,-3.2207 1.6025,-4.8096 0.541,-1.5615 1.3037,-3.0605 1.8301,-4.5771 0.8301,-0.3936 1.4395,-1.0039 1.834,-1.833 1.335,-0.6447 2.8574,-1.1085 4.3457,-1.5997 z m 11.4502,5.0332 c -1.0566,-1.5547 -4.1064,-0.9141 -4.8105,0.46 0.0176,1.4463 -0.6963,2.7324 -1.1426,4.1191 -0.3555,1.1055 -0.6797,2.2627 -0.9209,2.9766 -0.2988,0.9238 -0.4844,1.2549 -0.6865,1.8301 -0.3066,0.9131 -0.5332,1.4326 -0.6865,2.0635 -0.6064,2.5547 -1.5957,5.002 -2.29,7.0967 -0.292,0.9023 -0.3652,2.0771 -0.6865,2.7461 -0.0342,0.0869 -0.4219,0.1152 -0.4531,0.2305 -0.1074,0.4004 0.1436,0.9238 0,1.373 -0.0176,0.0596 -0.4219,0.1465 -0.4561,0.2266 -0.0947,0.1885 0.0664,0.4912 0,0.6865 -0.3389,0.959 -0.5889,1.9629 -0.9209,2.9766 -0.1943,0.5957 -0.7041,1.1885 -0.9131,1.833 -0.1221,0.3809 0.1289,0.8926 0,1.374 -0.01,0.0488 -0.4219,0.1563 -0.46,0.2266 -0.5195,1.1084 -0.1318,2.1572 0,2.9766 1.2197,0.9199 3.1611,0.2197 4.123,-0.457 0.6309,-2.8438 1.6426,-5.5068 2.5166,-8.2432 0.541,-1.6836 1.1152,-3.5029 1.6006,-5.0361 0.3867,-1.1953 1.0205,-2.8301 1.376,-3.8896 0.3311,-0.9863 0.5576,-2.0947 0.9131,-3.207 0.1152,-0.3486 0.3174,-0.5469 0.4609,-0.9131 0.1387,-0.3594 0.1143,-0.7979 0.2266,-1.1465 1.1328,-3.472 2.5087,-6.7034 3.2099,-10.303 z" /><path
             inkscape:connector-curvature="0"
             id="path3407"
             d="m 754.7124,329.1416 c 0.9688,-2.0107 2.4326,-3.9102 3.207,-6.1797 0.1152,-0.3516 0.1807,-0.5615 0.2266,-0.917 0.3271,-2.7529 -0.6064,-5.9424 -1.373,-8.6992 -0.792,-2.8477 -1.7783,-5.5244 -2.75,-7.5527 -2.2871,-1.4746 -4.2773,-3.4131 -7.5537,-3.8936 -0.0732,-0.0107 -0.1533,0.0107 -0.2266,0 0,0.2305 0,0.4561 0,0.6865 -0.4629,1.5615 -1.0205,2.9736 -1.6035,4.3496 -0.5986,1.415 -1.373,2.6357 -1.8291,4.1201 1.3037,3.6563 2.4707,7.4482 2.29,12.5928 3.7393,1.293 6.4551,3.6182 9.6123,5.4932 z m 4.5762,-6.6396 c 0.833,-0.1602 0.3174,-1.666 0.4609,-2.5166 0,-0.9932 0,-1.9834 0,-2.9766 -0.7119,-3.9453 -2.1924,-7.1211 -3.4375,-10.5293 -0.2266,0 -0.4531,0 -0.6865,0 1.4785,4.2803 3.0254,8.874 3.21,14.1924 0.0146,0.4951 -0.3897,1.6767 0.4531,1.8301 z m -36.1719,35.2548 c 1.1396,0.0566 2.6113,0.7988 3.4365,-0.2295 -1.4082,-0.0977 -2.3945,-0.6445 -3.4365,-0.9131 -0.8916,-0.2305 -1.4258,-0.4326 -2.2832,-0.6865 -1.1465,-0.3389 -2.5645,-1.3076 -3.4365,-1.374 -1.0205,-0.0801 -1.2305,0.3418 -1.6025,0.457 -1.165,0.3623 -2.3213,-0.0908 -2.5166,0.917 2.5898,1.376 6.2773,1.6621 9.8388,1.8291 z m -1.8301,-60.8935 c 3.2939,3.2725 5.9639,7.1592 8.4697,11.2158 4.1094,0.3936 8.0342,0.9756 11.4463,2.0635 2.1191,-2.3877 3.2734,-5.7373 4.124,-9.3867 -0.7188,-1.8535 -1.0918,-3.6563 -2.2871,-5.0361 -2.3145,-2.666 -7.3711,-4.2559 -11.9063,-4.5801 -1.9346,-0.1396 -4.0049,0.0557 -5.9561,0.457 -1.1327,1.9131 -2.7645,3.3349 -3.8905,5.2666 z m 6.1807,-6.6406 c 1.8291,-0.1211 3.9482,0.0908 6.1865,0 2.5967,0.6836 5.1719,1.3916 7.3223,2.5205 0.8506,0.7559 1.876,-0.2549 2.75,-0.2305 -0.6475,-1.2617 -2.0068,-1.6514 -3.21,-2.29 -1.1182,-0.5918 -2.3311,-1.6094 -3.8926,-1.5996 -0.3145,-0.7598 -1.3252,-0.4805 -2.0566,-0.6895 -0.4111,-0.1152 -0.5234,-0.3633 -0.9131,-0.457 -3.332,-0.791 -8.501,-1.2822 -12.1406,-0.6865 -0.4912,0.0801 -1.5508,-0.0107 -1.5996,0.6865 0.7666,0.6592 1.7539,0.8223 2.75,1.373 0.9033,0.502 1.624,1.4219 2.7471,1.6035 0.6308,0.1016 1.3691,-0.1816 2.0566,-0.2304 z m 7.3291,39.8359 c -0.6621,5.1377 -1.7246,9.8701 -2.9766,14.4229 1.7393,2.4531 3.8799,4.5137 6.8662,5.7227 0.7285,-0.4111 1.5547,-0.2373 2.29,-0.46 0.6211,-0.1846 1.2061,-0.666 1.834,-0.9131 0.7217,-0.2891 1.3867,-0.3662 2.0557,-0.6865 0.5342,-0.2578 1.0283,-0.7979 1.6035,-1.1465 0.5967,-0.3594 1.293,-0.5303 1.834,-0.917 0.502,-0.3623 0.8643,-0.9063 1.3691,-1.373 1.0352,-0.9414 2.5547,-2.1543 2.9766,-3.2031 1.1152,-2.7744 1.5029,-6.3926 1.374,-10.7598 -1.0596,-1.2969 -2.6533,-2.0635 -4.1172,-2.9766 -1.5049,-0.9414 -3.3076,-2.2549 -5.04,-2.5166 -0.041,-0.2617 -0.3555,-0.126 -0.6865,0 -2.9932,1.1113 -6.2451,3.4853 -9.3828,4.8066 z m 0,26.0957 c 7.0547,-1.8721 12.2061,-5.6465 16.4834,-10.2998 -0.0244,-0.2793 -0.0703,-0.5439 -0.46,-0.46 -3.1797,2.7773 -6.9326,4.9736 -12.1338,5.7227 -1.1953,1.7812 -2.8613,3.0918 -3.8896,5.0371 z m -27.4717,-63.6416 c 1.9756,-1.8369 4.6357,-2.9941 7.0957,-4.3496 -0.543,-0.4287 -1.5928,0.1016 -2.0635,0.46 -1.2959,-0.0273 -1.7246,0.5752 -2.5156,0.9131 -1.9414,0.8369 -3.9951,1.2373 -5.0332,2.7471 0.7773,0.2646 1.8154,0.5224 2.5166,0.2294 z m -37.0859,8.9297 c 3.2422,-0.3936 7.5215,0.293 10.9902,0 1.0596,-0.3164 1.9932,-0.9648 3.4326,-1.1465 2.6846,-0.334 6.0166,0.251 8.9229,0 1.0322,-0.5752 1.7705,-1.4355 2.0674,-2.7461 -10.8369,-0.5332 -22.6699,-0.0771 -33.8828,-0.2305 0.1611,-0.9971 1.2939,-0.6309 2.0605,-0.6865 2.3242,-0.1602 5.7051,0.1221 8.2363,0 0.8672,-0.1816 1.666,-0.7559 2.75,-0.9131 3.0078,-0.4355 7.0615,0.3242 10.2988,0 1.1055,-0.1602 2.0703,-0.9551 3.4365,-1.1465 2.9697,-0.4111 6.6328,0.3096 9.8438,0 0.9063,-0.1436 1.418,-0.8857 2.0635,-1.374 0.6064,-0.4561 0.9619,-0.7207 1.6025,-1.1426 2.5967,-1.7256 5.6992,-3.6045 9.1563,-4.8105 1.6348,-0.5674 3.3008,-0.8887 5.0371,-1.5996 3.7539,-0.1074 5.5176,-0.9971 9.8389,-0.6865 3.332,0.2373 6.9297,1.084 9.8428,2.0596 3.8662,1.29 7.1836,3.0117 10.3066,5.2637 5.1445,3.7148 9.582,9.0723 12.3594,15.5693 2.1924,5.127 3.6563,13.2236 2.5166,20.833 -0.1563,1.0449 -0.4004,2.1641 -0.6826,3.2031 -0.0635,0.2266 -0.4189,0.5469 -0.46,0.6865 -0.0732,0.2783 0.0967,0.6445 0,0.916 -0.168,0.4883 -0.5439,0.7285 -0.6875,1.1436 -0.1113,0.3379 0.1367,0.8154 0,1.1465 -0.0654,0.168 -0.3623,0.2021 -0.4531,0.457 -0.1602,0.4424 -0.251,0.8994 -0.46,1.373 -4.4824,10.2021 -13.4121,18.3193 -25.4082,21.293 -0.4707,0.1143 -1.0742,0.1182 -1.6035,0.2266 -3.3467,0.6826 -8.7344,1.0137 -13.0537,0.46 -0.5986,-0.0801 -1.2051,-0.3418 -1.8262,-0.46 -2.9209,-0.5547 -5.5664,-1.2236 -8.2432,-2.5166 -0.7451,-0.3594 -2.1924,-0.8682 -2.29,-2.0605 1.3184,-1.3623 3.6221,-0.2959 4.8066,0.457 1.9941,-0.6797 4.165,-1.1816 5.9531,-2.0596 0.6035,-1.9141 1.0176,-4.0156 1.1465,-6.4102 -0.0479,-1.0215 -1.334,-0.8047 -1.6025,-1.6035 -0.6133,-0.3584 -1.3809,-0.8018 -2.0605,-1.373 -0.0732,-0.0557 -0.1709,-0.4287 -0.2334,-0.457 -0.7217,-0.3271 -2.4121,-1.4912 -2.0566,-2.5195 1.1895,-0.9756 2.0225,1.5859 3.2031,2.0596 1.1963,0.8682 2.4824,1.6416 3.6641,2.5205 4.377,0.1045 7.9531,-0.5957 11.4463,-1.373 1.1885,-2.9629 1.9512,-6.208 2.5156,-9.8467 0.1924,-1.1953 0.6143,-2.6738 0.4609,-3.6631 -0.2588,-1.6699 -2.6846,-3.5977 -3.8906,-4.8066 -1.5371,-1.5371 -3.0742,-2.8096 -4.5791,-3.8896 -1.0498,0.1396 -2.2383,0.1113 -3.4375,0.2266 -1.0273,0.1006 -2.2402,0.8643 -2.7422,0 0.1846,-1.1221 1.7637,-0.7529 2.7422,-0.9131 1.123,-0.1885 2.249,-0.3799 3.2031,-0.46 1.8857,-3.3809 3.165,-7.3721 4.127,-11.6768 -2.168,-4.3984 -5.2832,-7.8418 -8.4766,-11.2158 -3.9072,0.3652 -7.4102,1.1328 -10.7598,2.0596 -0.9795,0.7637 -1.4004,1.9902 -2.0557,3.207 -0.4355,0.8047 -1.0498,2.2061 -1.6006,3.4326 -0.292,0.6484 -0.2021,1.9941 -1.376,1.8301 -1.252,-0.1953 -0.1777,-1.5547 0,-2.0596 0.7529,-2.1025 2.3379,-4.7549 3.4365,-6.6367 -0.0459,-1.1777 -0.7324,-1.7188 -0.9199,-2.75 -0.4922,-0.6514 -0.293,-1.9941 -0.9141,-2.5166 -0.7041,-0.1738 -1.3418,-0.6826 -2.0625,-0.6865 -1.5449,-0.007 -2.9355,1.624 -4.1172,2.7461 -2.1602,2.0498 -3.5439,3.7715 -5.04,6.6406 -0.1699,0.3271 -0.5498,0.627 -0.6865,0.9131 -0.6719,1.4326 -0.6553,4.1338 -2.7432,3.8926 -1.0596,-0.3447 -0.1875,-1.4424 0,-2.0596 0.21,-0.7041 0.7217,-1.3867 0.6875,-2.0596 -13.9697,-0.5332 -28.9258,-0.0771 -43.2686,-0.2305 0.6338,-0.4287 1.7002,-0.4316 2.29,-0.917 5.3389,0 10.6787,0 16.0225,0 1.007,-0.2472 1.9347,-0.7599 3.2062,-0.9132 z" /><path
             style="fill:#e31d38"
             inkscape:connector-curvature="0"
             id="path3409"
             d="m 656.269,309.2256 c 6.002,0.5479 15.709,-0.7109 22.8994,0 0.6064,0.0596 0.8408,0.0488 1.374,0.2305 0.9551,0.3242 1.2715,0.8604 1.8291,1.5996 -0.4141,4.0117 -1.7803,7.0723 -2.75,10.5332 -4.7324,0 -9.4629,0 -14.1885,0 0.2607,-2.5303 2.1045,-4.5488 1.5996,-7.0996 -3.1445,-1.4229 -4.0576,1.8262 -4.8105,4.123 -0.8008,2.4678 -1.627,5.3398 -2.2891,7.3262 0.8672,0.8154 2.6934,0.457 4.3525,0.457 4.1826,0 9.4629,-0.1855 13.5068,0.2295 -0.1855,1.3838 -0.624,2.8232 -1.1475,4.3496 -0.0732,0.2129 -0.4141,0.5479 -0.4531,0.6875 -0.373,1.2295 -0.4697,2.1777 -0.916,3.4326 -0.6943,1.9346 -1.2588,4.1338 -2.0605,6.4102 -0.1777,0.498 -0.5332,0.8818 -0.6865,1.373 -0.1152,0.3447 0.0977,0.7949 0,1.1436 -0.0586,0.2051 -0.373,0.4209 -0.4629,0.6865 -0.7676,2.3906 -1.5371,5.7266 -3.2031,7.3262 -1.3525,1.3037 -3.2598,1.6133 -5.0332,2.29 -6.04,-0.3105 -13.9111,0.415 -19.6934,0 -1.9971,-0.1426 -3.8652,-0.5996 -5.0322,-1.8301 -0.0879,-0.791 -0.4365,-1.4814 -0.4609,-2.29 -0.0313,-1.2998 0.5439,-2.3564 0.9209,-3.6631 0.334,-1.1748 0.5752,-2.3418 0.9131,-3.4336 0.7285,-2.3525 1.6035,-4.5654 2.0635,-6.8691 4.6523,0 9.3096,0 13.9629,0 -0.2344,3.2129 -2.3115,6.2422 -2.751,9.6162 -0.1357,1.0391 -0.7422,2.3252 0.6875,2.9766 2.8398,-0.1426 3.0908,-3.0498 3.8926,-5.4971 0.1289,-0.3936 0.3457,-0.8008 0.46,-1.1426 1.0352,-3.1514 2.2412,-6.8701 3.2031,-10.3027 -0.7695,-0.8096 -2.54,-0.457 -4.1191,-0.457 -4.1797,0 -9.1465,0 -13.5068,0 -0.0723,-1.1016 0.5264,-2.1543 0.9141,-3.4336 0.2607,-0.8643 0.7939,-2.335 1.1426,-3.4365 0.2266,-0.7139 0.4502,-1.5469 0.6865,-2.2861 0.0879,-0.2617 0.2656,-0.5225 0.46,-1.1465 0.2998,-0.9619 0.7363,-2.1895 1.1475,-3.4336 0.8115,-2.4854 1.2793,-4.3184 2.7432,-5.9531 1.1248,-1.2511 2.7986,-1.8546 4.8054,-2.5167 z" /><path
             style="fill:#0066a5"
             inkscape:connector-curvature="0"
             id="path3411"
             d="m 621.9312,342.8779 c -0.6064,-1.0811 -2.2168,-0.6729 -3.6641,-0.6865 -2.6279,-0.0283 -5.7607,0.1289 -8.6953,0 -0.7949,-0.0352 -1.6494,0.1494 -2.29,0 -0.9141,-0.2158 -1.1963,-0.9932 -1.834,-1.373 -0.502,-1.3838 -0.4707,-2.7744 -0.2266,-4.1201 0.0801,-0.4502 0.3867,-0.46 0.46,-0.6865 0.2412,-0.7461 0.1709,-1.1748 0.4531,-1.834 0.1191,-0.2646 0.1045,-0.5332 0.2334,-0.916 0.3564,-1.084 0.8164,-2.1582 1.1406,-3.2031 0.2021,-0.6377 0.2363,-1.1953 0.4629,-1.834 0.1504,-0.4209 0.5234,-0.8887 0.6865,-1.373 0.1123,-0.3418 -0.1113,-0.7979 0,-1.1426 0.0566,-0.1748 0.3389,-0.335 0.4531,-0.6875 1.5303,-4.7324 3.1475,-10.0518 4.8105,-14.8789 -0.007,-0.3936 0.1709,-0.5957 0.4561,-0.6865 4.6572,0 9.3096,0 13.9668,0 -1.374,3.9805 -2.5547,8.0547 -3.8896,12.1328 -0.1533,0.4668 -0.5654,0.958 -0.6875,1.373 -0.1045,0.3486 0.1055,0.7949 0,1.1436 -0.1289,0.3975 -0.6719,1.1846 -0.9199,2.0596 -0.4385,1.582 -0.8115,2.8232 -1.3691,4.5801 -0.293,0.9199 -0.5479,1.9727 -1.1475,2.7461 0.2725,1.5859 -1.084,2.1855 -0.4561,3.4336 0.7461,0.9971 2.4854,0.1885 3.4326,0 0.7041,-0.8955 1.2275,-1.9795 1.6006,-3.2031 0.1631,-1.3701 1.0205,-2.0322 0.916,-3.6631 0.7354,-0.7949 1.0107,-2.0459 1.1465,-3.4336 0.7119,-0.8154 0.8994,-2.1504 1.1475,-3.4365 0.8115,-1.5576 1.2305,-3.3457 1.8291,-5.0361 0.2031,-0.5684 0.2686,-1.2344 0.4531,-1.8301 0.7432,-2.3037 1.6182,-4.5938 2.29,-6.8662 4.6602,0 9.3096,0 13.9697,0 -0.8984,3.5273 -2.0635,6.7861 -3.2061,10.0693 -0.8398,3.5098 -2.2627,6.4375 -2.9766,10.0732 -1.2344,2.293 -1.624,4.7715 -2.5205,7.5557 -0.1143,0.3594 -0.3242,0.6973 -0.4531,1.1436 -0.9795,3.2939 -2.6377,7.3096 -3.4395,11.2197 -0.8896,1.1777 -1.6563,2.1572 -2.7432,3.2031 -0.9521,0.9131 -3.4443,0.9023 -5.2637,1.6035 -8.7832,-0.1504 -18.1621,0.3027 -26.5625,-0.2305 0.6309,-2.4189 1.541,-4.5693 2.2939,-6.8662 5.8652,-0.3135 13.0732,0.7109 17.8555,-0.6865 1.0666,-0.9133 2.2483,-1.7219 2.2874,-3.6633 z" /><path
             style="fill:#e31d38"
             inkscape:connector-curvature="0"
             id="path3413"
             d="m 589.4292,326.3955 c 0.8916,-1.7949 1.457,-3.7998 2.0557,-5.7236 0.6143,-1.9658 1.4814,-3.9209 1.6035,-6.1826 -1.2334,-1.3252 -3.1406,-0.5439 -3.8926,0.2295 -0.834,0.8613 -0.9551,2.3389 -1.374,3.6631 -0.1143,0.3594 -0.3486,0.7842 -0.4561,1.1436 -0.1777,0.5889 -0.0703,1.0977 -0.2266,1.6035 -0.0215,0.0586 -0.4189,0.1494 -0.46,0.2295 -0.1221,0.2441 0.0898,0.6592 0,0.917 -0.4219,1.1641 -1.2764,2.6699 -1.1475,4.1201 1.3009,-10e-5 2.5968,-10e-5 3.8976,-10e-5 z m -10.5371,19.459 c -0.8193,2.5518 -1.9346,5.4551 -2.7432,8.2393 -4.6602,-0.1465 -9.916,0.2998 -14.1963,-0.2266 1.8438,-6.5313 4.4893,-13.4854 6.8672,-20.832 0.1357,-0.4082 0.3164,-0.8574 0.4629,-1.373 0.1289,-0.457 0.0771,-1.1406 0.2266,-1.6035 0.1357,-0.4189 0.5332,-0.708 0.6865,-1.1465 0.0947,-0.2588 -0.1221,-0.6699 0,-0.9141 0.0391,-0.083 0.4355,-0.167 0.46,-0.2295 0.1533,-0.457 0.0488,-1.0908 0.2266,-1.6035 0.0977,-0.2686 0.251,-0.5195 0.4609,-1.1436 0.2852,-0.8779 0.6309,-1.6689 0.9131,-2.5195 1.4883,-4.4443 2.373,-8.9404 5.4932,-11.4463 1.4004,-0.582 2.6064,-1.3594 4.1191,-1.8301 7.2539,0 14.5029,0 21.749,0 0.9629,0.5645 2.1826,0.875 2.9766,1.6035 0.7363,1.168 0.7705,3.0391 0.6875,5.0361 -4.1797,12.7637 -8.2744,25.6084 -12.3594,38.459 -4.7334,0 -9.4639,0 -14.1963,0 -0.21,-0.9131 0.4355,-1.7188 0.6895,-2.5166 0.1602,-0.5059 0.0801,-1.1367 0.2266,-1.6035 0.0391,-0.1289 0.3701,-0.2441 0.46,-0.46 0.6699,-1.6904 1.1719,-4.1123 1.8271,-6.1797 1.1494,-3.6182 2.5479,-7.2988 3.4365,-10.9893 -0.4434,-0.9277 -2.4961,-0.251 -3.6631,-0.457 -1.2305,0.418 -0.8232,1.8232 -1.1475,2.7471 -0.0488,0.1426 -0.3652,0.2334 -0.4531,0.4561 -0.2334,0.582 -0.4531,1.3486 -0.6865,2.0635 -0.0908,0.2754 0.0801,0.6377 0,0.9131 -0.1152,0.3691 -0.6729,1.0596 -0.916,1.833 -0.29,0.917 -0.4043,2.0498 -0.6875,2.9766 -0.1357,0.4326 -0.5645,0.7432 -0.6865,1.1436 -0.1632,0.537 -0.0734,1.1014 -0.2335,1.6034 z" /></g><g
           id="g3415" /></g></g><g
       id="g3417"><path
         style="fill:#e31d38"
         inkscape:connector-curvature="0"
         id="path3419"
         d="m 809.3853,312.3789 -17.459,17.8193 12.0566,24.126 -12.6064,0 -7.3564,-15.666 -4.7881,4.8555 -1.8887,10.8105 -13.2217,0 7.3799,-41.9453 13.2207,0 -3.0527,17.3799 16.4717,-17.3799 11.2441,0 z" /><path
         style="fill:#e31d38"
         inkscape:connector-curvature="0"
         id="path3421"
         d="m 824.3267,354.4121 0.5273,-3.0547 c -0.3369,0.5576 -1.1934,1.2607 -2.5703,2.1094 -1.377,0.8506 -3.4863,1.3184 -6.3281,1.4063 -2.5049,0 -4.6035,-0.6768 -6.2949,-2.0322 -1.6924,-1.3545 -2.5381,-3.5332 -2.5381,-6.5361 0.3369,-2.124 1.0908,-3.8242 2.2627,-5.0977 1.1719,-1.2754 2.6953,-2.2529 4.5703,-2.9336 1.875,-0.6816 4.1895,-1.2119 6.9434,-1.5938 2.4316,-0.3516 4.2705,-0.9219 5.5156,-1.7129 1.2451,-0.791 1.8672,-1.5967 1.8672,-2.418 0,-0.7607 -0.4277,-1.4023 -1.2852,-1.9219 -0.8564,-0.5205 -1.9883,-0.7803 -3.3945,-0.7803 -3.457,0 -6.2656,0.4834 -8.4268,1.4502 -2.1602,0.9668 -3.6143,1.7725 -4.3613,2.417 l 3.1641,-7.0088 c 0,-0.0879 0.5566,-0.3701 1.6699,-0.8467 1.1133,-0.4756 2.6113,-0.9189 4.4932,-1.3291 1.8828,-0.4102 4.083,-0.6152 6.6035,-0.6152 4.4961,0 7.752,0.7178 9.7666,2.1533 2.0137,1.4355 3.0205,3.2959 3.0205,5.5811 0,0.3076 -0.0586,0.8125 -0.1758,1.5156 l -3.6914,21.1602 -11.3379,0.0879 z m -3.0762,-6.0205 c 1.6113,-0.3809 2.8096,-1.0176 3.5928,-1.9111 0.7842,-0.8936 1.1758,-1.5166 1.1758,-1.8682 l 0.8135,-4.5928 c -0.1182,0.1621 -0.3008,0.3701 -0.5498,0.627 -0.249,0.2559 -0.7842,0.5605 -1.6045,0.9121 -0.8203,0.3516 -1.9629,0.6445 -3.4277,0.8789 -1.9766,0.3066 -3.4053,0.7793 -4.2842,1.417 -0.8789,0.6367 -1.3408,1.5781 -1.3838,2.8232 0,1.377 1.0244,2.0654 3.0762,2.0654 0.4091,10e-5 1.2733,-0.1171 2.5917,-0.3515 z" /><path
         style="fill:#e31d38"
         inkscape:connector-curvature="0"
         id="path3423"
         d="m 874.5347,332.7246 -3.7793,21.5996 -8.46,0 3.4063,-19.5156 c 0,-3.0586 -1.6484,-4.5879 -4.9434,-4.5879 -1.9199,0.2637 -3.2783,0.999 -4.0762,2.2061 -0.7988,1.207 -1.2715,2.1836 -1.418,2.9307 l -3.3174,18.9668 -11.3379,0 5.2959,-29.9707 11.3379,0 -0.4395,2.4492 c 0.1162,-0.1035 0.5156,-0.4014 1.1973,-0.8936 0.6807,-0.4922 1.626,-0.9473 2.834,-1.3662 1.209,-0.4189 2.6553,-0.6289 4.3398,-0.6289 6.2404,0 9.3605,2.9375 9.3605,8.8105 z" /><path
         style="fill:#e31d38"
         inkscape:connector-curvature="0"
         id="path3425"
         d="m 889.2134,332.8125 c 0,0.8652 0.8271,1.502 2.4824,1.9121 1.6553,0.4101 3.4902,0.8457 5.5039,1.3076 2.0146,0.4609 3.7061,1.2891 5.0762,2.4824 1.3691,1.1943 2.0547,3.0146 2.0547,5.46 -0.4551,3.707 -1.9014,6.3877 -4.3398,8.043 -2.4395,1.6553 -5.7314,2.6367 -9.877,2.9434 -0.6582,0.0586 -1.6162,0.0879 -2.874,0.0879 -2.7646,0 -5.1191,-0.2266 -7.0645,-0.6807 -1.9454,-0.4541 -3.2754,-0.8271 -3.9922,-1.1201 l -0.0879,-7.6465 c 0.5117,0.5273 1.5576,1.1895 3.1367,1.9883 1.5801,0.7979 3.708,1.2119 6.3848,1.2412 2.7803,0 4.6973,-0.2822 5.751,-0.8457 1.0537,-0.5645 1.6543,-1.3877 1.8008,-2.4717 0,-1.1426 -0.5273,-1.8936 -1.5801,-2.2529 -1.0537,-0.3584 -2.9629,-0.8164 -5.7266,-1.373 -2.7656,-0.5566 -4.8457,-1.3105 -6.2432,-2.2627 -1.3965,-0.9521 -2.0947,-2.4395 -2.0947,-4.4609 0,-0.7471 0.1533,-1.7139 0.46,-2.9004 0.4971,-1.8311 1.4697,-3.376 2.918,-4.6367 1.4482,-1.2588 3.167,-2.2041 5.1563,-2.834 1.9893,-0.6299 4.0879,-0.9883 6.2969,-1.0762 0.2783,0 0.6807,-0.0146 1.208,-0.0449 0.5273,-0.0283 0.9082,-0.043 1.1426,-0.043 2.8857,0 5.1455,0.168 6.7793,0.5049 1.6328,0.3369 2.7275,0.623 3.2852,0.8564 l 0.4609,6.9219 c -0.4541,-0.3516 -1.4609,-0.7832 -3.0215,-1.2969 -1.5596,-0.5117 -3.8857,-0.7686 -6.9766,-0.7686 -3.8673,0 -5.8741,0.9892 -6.0196,2.9658 z" /><path
         style="fill:#e31d38"
         inkscape:connector-curvature="0"
         id="path3427"
         d="m 924.4126,354.4121 0.5273,-3.0547 c -0.3379,0.5576 -1.1943,1.2607 -2.5713,2.1094 -1.377,0.8506 -3.4863,1.3184 -6.3281,1.4063 -2.5049,0 -4.6035,-0.6768 -6.2949,-2.0322 -1.6924,-1.3545 -2.5381,-3.5332 -2.5381,-6.5361 0.3369,-2.124 1.0908,-3.8242 2.2637,-5.0977 1.1709,-1.2754 2.6943,-2.2529 4.5703,-2.9336 1.874,-0.6816 4.1885,-1.2119 6.9434,-1.5938 2.4307,-0.3516 4.2695,-0.9219 5.5146,-1.7129 1.2451,-0.791 1.8682,-1.5967 1.8682,-2.418 0,-0.7607 -0.4287,-1.4023 -1.2861,-1.9219 -0.8564,-0.5205 -1.9883,-0.7803 -3.3945,-0.7803 -3.457,0 -6.2656,0.4834 -8.4268,1.4502 -2.1602,0.9668 -3.6143,1.7725 -4.3613,2.417 l 3.1641,-7.0088 c 0,-0.0879 0.5566,-0.3701 1.6699,-0.8467 1.1133,-0.4756 2.6113,-0.9189 4.4932,-1.3291 1.8828,-0.4102 4.083,-0.6152 6.6025,-0.6152 4.4971,0 7.7529,0.7178 9.7676,2.1533 2.0137,1.4355 3.0215,3.2959 3.0215,5.5811 0,0.3076 -0.0596,0.8125 -0.1758,1.5156 l -3.6914,21.1602 -11.338,0.0879 z m -3.0762,-6.0205 c 1.6104,-0.3809 2.8086,-1.0176 3.5918,-1.9111 0.7842,-0.8936 1.1758,-1.5166 1.1758,-1.8682 l 0.8125,-4.5928 c -0.1172,0.1621 -0.2998,0.3701 -0.5488,0.627 -0.249,0.2559 -0.7842,0.5605 -1.6035,0.9121 -0.8213,0.3516 -1.9639,0.6445 -3.4277,0.8789 -1.9785,0.3066 -3.4063,0.7793 -4.2852,1.417 -0.8789,0.6367 -1.3398,1.5781 -1.3848,2.8232 0,1.377 1.0254,2.0654 3.0762,2.0654 0.4101,10e-5 1.2754,-0.1171 2.5937,-0.3515 z" /><path
         style="fill:#e31d38"
         inkscape:connector-curvature="0"
         id="path3429"
         d="m 954.9106,332.8125 c 0,0.8652 0.8271,1.502 2.4824,1.9121 1.6553,0.4101 3.4902,0.8457 5.5039,1.3076 2.0146,0.4609 3.7061,1.2891 5.0762,2.4824 1.3691,1.1943 2.0547,3.0146 2.0547,5.46 -0.4551,3.707 -1.9014,6.3877 -4.3398,8.043 -2.4395,1.6553 -5.7314,2.6367 -9.877,2.9434 -0.6582,0.0586 -1.6162,0.0879 -2.874,0.0879 -2.7646,0 -5.1191,-0.2266 -7.0645,-0.6807 -1.9454,-0.4541 -3.2754,-0.8271 -3.9922,-1.1201 l -0.0879,-7.6465 c 0.5117,0.5273 1.5576,1.1895 3.1367,1.9883 1.5801,0.7979 3.708,1.2119 6.3848,1.2412 2.7803,0 4.6973,-0.2822 5.751,-0.8457 1.0537,-0.5645 1.6543,-1.3877 1.8008,-2.4717 0,-1.1426 -0.5273,-1.8936 -1.5801,-2.2529 -1.0537,-0.3584 -2.9629,-0.8164 -5.7266,-1.373 -2.7656,-0.5566 -4.8457,-1.3105 -6.2432,-2.2627 -1.3965,-0.9521 -2.0947,-2.4395 -2.0947,-4.4609 0,-0.7471 0.1533,-1.7139 0.46,-2.9004 0.4971,-1.8311 1.4697,-3.376 2.918,-4.6367 1.4482,-1.2588 3.167,-2.2041 5.1563,-2.834 1.9893,-0.6299 4.0879,-0.9883 6.2969,-1.0762 0.2783,0 0.6807,-0.0146 1.208,-0.0449 0.5273,-0.0283 0.9082,-0.043 1.1426,-0.043 2.8857,0 5.1455,0.168 6.7793,0.5049 1.6328,0.3369 2.7275,0.623 3.2852,0.8564 l 0.4609,6.9219 c -0.4541,-0.3516 -1.4609,-0.7832 -3.0215,-1.2969 -1.5596,-0.5117 -3.8857,-0.7686 -6.9766,-0.7686 -3.8672,0 -5.874,0.9892 -6.0196,2.9658 z" /></g></g><g
     id="Text-Large"
     transform="translate(-32.77608,5.1353222)" /></svg>