<?xml version="1.0" encoding="iso-8859-1"?>
<!-- Generator: Adobe Illustrator 15.0.2, SVG Export Plug-In . SVG Version: 6.00 Build 0)  -->
<!DOCTYPE svg PUBLIC "-//W3C//DTD SVG 1.1//EN" "http://www.w3.org/Graphics/SVG/1.1/DTD/svg11.dtd">
<svg version="1.1" xmlns="http://www.w3.org/2000/svg"  viewBox="0 0 612 1008" style="enable-background:new 0 0 612 1008;" xml:space="preserve">
<style type="text/css">
<![CDATA[
	.st0{fill:#E6E7E8;stroke:#000000;}
	.st1{fill:none;stroke:#000000;}
	.st2{fill:#58595B;}
	.st3{fill:#F1824D;}
	.st4{fill:#F1F2F2;}
	.st5{font-family:'MyriadPro-Semibold';}
	.st6{font-family:'MyriadPro-Regular';}
	.st7{fill:#27AAE1;}
	.st8{fill:#FFF4DF;stroke:#000000;}
	.st9{fill:#F69A99;}
	.st10{fill:#F9F28F;}
	.st11{fill:#C49A6C;}
	.st12{fill:#C7E5CA;}
	.st13{fill:#C995C3;}
	.st14{fill:#FCD6D7;stroke:#000000;}
	.st15{fill:none;stroke:#000000;stroke-width:3;}
	.st16{fill:none;stroke:#000000;stroke-width:5;}
	.st17{fill:none;stroke:#000000;stroke-width:8;}
	.st18{fill:#F1F2F2;stroke:#000000;}
	.st19{font-size:18px;}
	.st20{font-size:21px;}
	.st21{font-size:24px;}
	.st22{font-size:36px;}
]]>
</style>
<g id="Roads">
	<line class="st17" x1="16.7" y1="145.4" x2="585.8" y2="145.4"/>
	<g>
		<g>
			<line class="st17" x1="22" y1="957.2" x2="590.5" y2="957.2"/>
			<g>
				<polygon points="21.5,957.2 22.3,957.5 22.1,957.2 22.3,956.8 				"/>
			</g>
		</g>
	</g>
	<rect x="42" y="167.3" class="st0" width="259.3" height="53.9"/>
	<rect x="34.5" y="895.3" class="st0" width="527.3" height="39.1"/>
	<line class="st16" x1="55.8" y1="145.4" x2="55.8" y2="167.3"/>
	<line class="st16" x1="285.8" y1="145.4" x2="285.8" y2="167.3"/>
	<line class="st16" x1="64.8" y1="934.4" x2="64.8" y2="957.2"/>
	<text transform="matrix(1 0 0 1 140.9209 201.354)" class="st6 st21">Parking</text>
	<text transform="matrix(1 0 0 1 260.2568 920.1509)" class="st6 st21">Parking</text>
	<text transform="matrix(1 0 0 1 281.0615 133.4434)" class="st6 st21">45th Street S</text>
	<text transform="matrix(1 0 0 1 202.9136 990.5566)" class="st6 st21">47th Street South</text>
	<text transform="matrix(1 0 0 1 11.4873 133.9063)" class="st6 st19">to Meridian</text>
	<text transform="matrix(1 0 0 1 13.4873 982.9063)" class="st6 st19">to Meridian Ave</text>
	<text transform="matrix(1 0 0 1 510.8164 167.3496)" class="st6 st19">to Seneca St</text>
	<text transform="matrix(1 0 0 1 510.8164 982.9063)" class="st6 st19">to Seneca St</text>
</g>
<g id="Fields">
	<rect x="380.8" y="228.2" class="st9" width="174" height="231.1"/>
	<rect x="73.8" y="646.2" class="st2" width="189" height="102"/>
	<rect x="73.8" y="759.6" class="st3" width="189" height="102"/>
	<rect x="75.9" y="539.7" class="st11" width="64.8" height="88"/>
	<rect x="152.7" y="538" class="st13" width="64.8" height="88"/>
	<rect x="290.5" y="510.4" class="st14" width="95.5" height="135.7"/>
	<rect x="412.8" y="477.9" class="st12" width="155" height="78.5"/>
	<rect x="412.8" y="583.7" class="st18" width="155" height="78.5"/>
	<rect x="290.5" y="704.9" class="st7" width="277.3" height="138.6"/>
	<rect x="34.5" y="285.4" class="st1" width="144.3" height="112.3"/>
	<rect x="199.6" y="423.4" class="st1" width="35.8" height="35.8"/>
	<rect x="199.6" y="341.6" class="st8" width="101.6" height="59.8"/>
	<text transform="matrix(1 0 0 1 82.0107 335.6582)"><tspan x="0" y="0" class="st6 st19">Tennis</tspan><tspan x="0" y="21.6" class="st6 st19">Courts</tspan></text>
	<text transform="matrix(1 0 0 1 207.0215 373.4434)" class="st6 st19">Playground</text>
	<text transform="matrix(1 0 0 1 241.4229 446.3501)" class="st6 st21">Restrooms</text>
	<rect x="90.9" y="477.9" class="st10" width="88" height="54"/>
</g>
<g id="Field_Labels">
	<text transform="matrix(1 0 0 1 458.8047 510.4434)" class="st5 st21">Green</text>
	<text transform="matrix(1 0 0 1 459.5488 615)" class="st5 st21">White</text>
	<text transform="matrix(1 0 0 1 315.4761 569.04)" class="st5 st21">Pink</text>
	<text transform="matrix(1 0 0 1 129.5688 797)" class="st5 st21">Orange</text>
	<text transform="matrix(1 0 0 1 140.729 694.5)" class="st4 st5 st21">Black</text>
	<text transform="matrix(1 0 0 1 104.2695 504)" class="st5 st20">Yellow</text>
	<text transform="matrix(1 0 0 1 78.7295 578.312)" class="st5 st20">Brown</text>
	<text transform="matrix(1 0 0 1 155.2993 579.5)" class="st5 st20">Purple</text>
	<text transform="matrix(1 0 0 1 406.1426 762.4248)" class="st5 st21">Blue</text>
	<text transform="matrix(1 0 0 1 447.8247 333.001)" class="st5 st21">Red</text>
</g>
<g id="Descriptions">
	<text transform="matrix(1 0 0 1 428.2852 371.5254)" class="st6 st20">U14, U19</text>
	<text transform="matrix(1 0 0 1 150.75 833.2393)" class="st6 st20">U10</text>
	<text transform="matrix(1 0 0 1 150.75 723)" class="st4 st6 st20">U10</text>
	<text transform="matrix(1 0 0 1 411.5918 799.6172)" class="st6 st20">U12</text>
	<text transform="matrix(1 0 0 1 326.0479 603.3223)" class="st6 st20">U8</text>
	<text transform="matrix(1 0 0 1 478.1367 536.3223)" class="st6 st20">U8</text>
	<text transform="matrix(1 0 0 1 478.1367 639.8574)" class="st6 st20">U8</text>
	<text transform="matrix(1 0 0 1 96.1279 606.6611)" class="st6 st20">U6</text>
	<text transform="matrix(1 0 0 1 122.7285 524.5)" class="st6 st20">U6</text>
	<text transform="matrix(1 0 0 1 172.96 606.6611)" class="st6 st20">U6</text>
</g>
<g id="North">
	<g>
		<g>
			<line class="st15" x1="499.8" y1="112.7" x2="499.8" y2="59.8"/>
			<g>
				<path d="M499.8,41.7c3.2,8.5,8.6,19.1,14.3,25.6l-14.3-5.2l-14.3,5.2C491.3,60.8,496.7,50.2,499.8,41.7z"/>
			</g>
		</g>
	</g>
	<text transform="matrix(1 0 0 1 480.8164 31.667)" class="st6 st19">North</text>
</g>
<g id="Title">
	<text transform="matrix(1 0 0 1 16.7373 44.2734)"><tspan x="0" y="0" class="st5 st22">AYSO Region 105</tspan><tspan x="0" y="28.8" class="st5 st21">South Wichita</tspan></text>
</g>
</svg>
