<?xml version="1.0" encoding="iso-8859-1"?>
<!-- Generator: Adobe Illustrator 15.0.2, SVG Export Plug-In . SVG Version: 6.00 Build 0)  -->
<!DOCTYPE svg PUBLIC "-//W3C//DTD SVG 1.1//EN" "http://www.w3.org/Graphics/SVG/1.1/DTD/svg11.dtd">
<svg version="1.1" xmlns="http://www.w3.org/2000/svg" xmlns:xlink="http://www.w3.org/1999/xlink" viewBox="0 0 612 1008" style="enable-background:new 0 0 612 1008;" xml:space="preserve">
<style type="text/css">
<![CDATA[
	.st0{fill:#E6E7E8;stroke:#000000;}
	.st1{fill:#EDB6B8;}
	.st2{font-family:'MyriadPro-Semibold';}
	.st3{font-family:'MyriadPro-Regular';}
	.st4{fill:#F9F7CD;}
	.st5{fill:none;stroke:#000000;stroke-width:8;stroke-miterlimit:10;}
	.st6{fill:#C7E5CA;}
	.st7{fill:#FCF9CE;}
	.st8{fill:none;stroke:#000000;stroke-width:5;stroke-linejoin:round;}
	.st9{fill:none;stroke:#000000;stroke-width:3;}
	.st10{fill:none;stroke:#000000;stroke-width:5;}
	.st11{font-size:18px;}
	.st12{font-size:21px;}
	.st13{font-size:24px;}
	.st14{font-size:28px;}
	.st15{font-size:36px;}
	.st16{font-family:'MyriadPro-Bold';}
]]>
</style>
<g transform="matrix(0 1 -1 0 612 0)">
<g id="Roads">
	<line class="st5" x1="22.5" y1="9" x2="22.5" y2="590"/>
	<line class="st5" x1="956.5" y1="9" x2="956.5" y2="590"/>
	<line class="st5" x1="783.5" y1="581" x2="1000.5" y2="581"/>
	<text transform="matrix(0 1 -1 0 37.3379 151.0078)" class="st3 st15">Webb Road</text>
	<text transform="matrix(0 1 -1 0 972.3379 78.0078)" class="st3 st15">Greenwich Road</text>
	<text transform="matrix(1 0 0 1 844.4888 569.9902)" class="st3 st15">K-96</text>
	<polyline class="st8" points="531.5,67.5 531.5,39 956.5,39 	"/>
	<line class="st10" x1="731.5" y1="38" x2="731.5" y2="66.5"/>
	<rect x="258.5" y="56.5" class="st0" width="654" height="58.5"/>
	<text transform="matrix(1 0 0 1 563.1616 95.4902)" class="st2 st15">Parking</text>
	<text transform="matrix(1 0 0 1 548.5078 186.9902)"><tspan x="0" y="0" class="st2 st14">Concessions</tspan><tspan x="10.2" y="33.6" class="st2 st14">Restrooms</tspan></text>
	<text transform="matrix(1 0 0 1 728.4888 30.9902)" class="st3 st14">29th Street North</text>
</g>
<g id="Fields">
	<rect x="132.5" y="121" class="st4" width="176" height="107"/>
	<rect x="134.2" y="123" class="st6" width="81.7" height="102.7"/>
	<rect x="132.5" y="244" class="st6" width="176" height="107"/>
	<rect x="132.5" y="367" class="st4" width="176" height="107"/>
	<rect x="333.8" y="244" class="st6" width="176" height="107"/>
	<rect x="535.2" y="244" class="st1" width="176" height="107"/>
	<rect x="736.5" y="244" class="st7" width="176" height="107"/>
	<rect x="736.5" y="121" class="st4" width="176" height="107"/>
	<rect x="333.8" y="367" class="st6" width="176" height="107"/>
	<rect x="535.2" y="367" class="st4" width="176" height="107"/>
	<rect x="736.5" y="367" class="st4" width="176" height="107"/>
	<rect x="132.5" y="490" class="st4" width="176" height="107"/>
	<rect x="224.8" y="123" class="st6" width="81.7" height="102.7"/>
	<rect x="333.8" y="121" class="st4" width="176" height="107"/>
	<rect x="335.5" y="123" class="st6" width="81.7" height="102.7"/>
	<rect x="425.2" y="124" class="st6" width="39" height="31"/>
	<rect x="466.8" y="124" class="st6" width="39" height="31"/>
	<rect x="425.2" y="162" class="st6" width="39" height="31"/>
	<rect x="466.8" y="162" class="st6" width="39" height="31"/>
</g>
<g id="Field_Labels">
	<text transform="matrix(1 0 0 1 184.0464 286.3237)" class="st2 st13">Field 10</text>
	<text transform="matrix(1 0 0 1 184.0464 411.9902)" class="st2 st13">Field 11</text>
	<text transform="matrix(1 0 0 1 184.0464 530.9902)" class="st2 st13">Field 12</text>
	<text transform="matrix(1 0 0 1 387.4785 286.3237)" class="st2 st13">Field 7</text>
	<text transform="matrix(1 0 0 1 387.4785 411.9902)" class="st2 st13">Field 8</text>
	<text transform="matrix(1 0 0 1 588.8115 411.9902)" class="st2 st13">Field 5</text>
	<text transform="matrix(1 0 0 1 587.8115 286.3237)" class="st2 st13">Field 4</text>
	<text transform="matrix(1 0 0 1 790.145 286.3237)" class="st2 st13">Field 2</text>
	<text transform="matrix(1 0 0 1 790.145 411.9902)" class="st2 st13">Field 3</text>
	<text transform="matrix(1 0 0 1 790.145 161.9902)" class="st2 st13">Field 1</text>
	<text transform="matrix(1 0 0 1 149.5605 148.0073)"><tspan x="0" y="0" class="st2 st13">Field</tspan><tspan x="8.6" y="21" class="st2 st13">9W</tspan></text>
	<text transform="matrix(1 0 0 1 240.2285 151.0073)"><tspan x="0" y="0" class="st2 st13">Field</tspan><tspan x="12.8" y="21" class="st2 st13">9E</tspan></text>
	<text transform="matrix(1 0 0 1 350.8945 151.0073)"><tspan x="0" y="0" class="st2 st13">Field</tspan><tspan x="19" y="21" class="st2 st13">6</tspan></text>
	<text transform="matrix(1 0 0 1 432.3608 146)" class="st2 st12">6A</text>
	<text transform="matrix(1 0 0 1 474.3125 146)" class="st2 st12">6B</text>
	<text transform="matrix(1 0 0 1 432.457 182.7505)" class="st2 st12">6C</text>
	<text transform="matrix(1 0 0 1 473.77 182.584)" class="st2 st12">6D</text>
</g>
<g id="Descriptions">
	<text transform="matrix(1 0 0 1 157.4219 210.9902)" class="st3 st12">U10</text>
	<text transform="matrix(1 0 0 1 248.0889 210.9902)" class="st3 st12">U10</text>
	<text transform="matrix(1 0 0 1 358.7559 210.9902)" class="st3 st12">U10</text>
	<text transform="matrix(1 0 0 1 425.1665 215.4902)" class="st3 st12">U6 Fields</text>
	<text transform="matrix(1 0 0 1 180.9565 328.9897)" class="st3 st12">U19, U14</text>
	<text transform="matrix(1 0 0 1 172.6401 575.9902)" class="st3 st12">Out of Play</text>
	<text transform="matrix(1 0 0 1 780.6406 328.9897)" class="st3 st12">Out of Play</text>
	<text transform="matrix(1 0 0 1 776.6406 453.6567)" class="st3 st12">Out of Play</text>
	<text transform="matrix(1 0 0 1 409.6421 328.9897)" class="st3 st12">U8</text>
	<text transform="matrix(1 0 0 1 404.2559 453.6567)" class="st3 st12">U12</text>
	<text transform="matrix(1 0 0 1 564.0615 313.9902)" class="st16 st12">No Warm-up</text>
	<text transform="matrix(1 0 0 1 172.6401 453.6567)" class="st3 st12">Out of Play</text>
	<text transform="matrix(1 0 0 1 574.3071 453.6567)" class="st3 st12">Out of Play</text>
	<text transform="matrix(1 0 0 1 776.6406 210.9902)" class="st3 st12">Out of Play</text>
	<text transform="matrix(1 0 0 1 570.3511 337.7466)" class="st16 st12">No Practice</text>
</g>
<g id="North">
	<g>
		<g>
			<line class="st9" x1="215.8" y1="108" x2="215.8" y2="55.1"/>
			<g>
				<path d="M215.8,37c3.2,8.5,8.6,19.1,14.3,25.6l-14.3-5.2l-14.3,5.2C207.3,56.1,212.7,45.5,215.8,37z"/>
			</g>
		</g>
	</g>
	<text transform="matrix(1 0 0 1 196.8213 26.9902)" class="st3 st11">North</text>
</g>
<g id="Title">
	<text transform="matrix(1 0 0 1 337.4883 530.9902)"><tspan x="0" y="0" class="st2 st15">AYSO Region 49 Stryker Complex</tspan><tspan x="0" y="28.8" class="st2 st13">29th St. North &amp; Greenwich</tspan></text>
</g>
</g>
</svg>
